<?xml version="1.0" encoding="UTF-8" standalone="no"?>
<svg
   id="2f049668-4cb1-495e-aa7b-e01b7d96bdeb"
   data-name="Capa 1"
   width="1741"
   height="1741"
   viewBox="0 0 1741 1741"
   version="1.1"
   sodipodi:docname="Claro_2019.svg"
   xml:space="preserve"
   inkscape:version="1.4.1 (93de688d07, 2025-03-30)"
   xmlns:inkscape="http://www.inkscape.org/namespaces/inkscape"
   xmlns:sodipodi="http://sodipodi.sourceforge.net/DTD/sodipodi-0.dtd"
   xmlns:xlink="http://www.w3.org/1999/xlink"
   xmlns="http://www.w3.org/2000/svg"
   xmlns:svg="http://www.w3.org/2000/svg"
   xmlns:rdf="http://www.w3.org/1999/02/22-rdf-syntax-ns#"
   xmlns:cc="http://creativecommons.org/ns#"
   xmlns:dc="http://purl.org/dc/elements/1.1/"><sodipodi:namedview
     id="namedview8"
     pagecolor="#505050"
     bordercolor="#eeeeee"
     borderopacity="1"
     inkscape:showpageshadow="0"
     inkscape:pageopacity="0"
     inkscape:pagecheckerboard="0"
     inkscape:deskcolor="#505050"
     showgrid="false"
     inkscape:zoom="0.1933273"
     inkscape:cx="943.99498"
     inkscape:cy="726.74682"
     inkscape:window-width="1366"
     inkscape:window-height="696"
     inkscape:window-x="0"
     inkscape:window-y="0"
     inkscape:window-maximized="1"
     inkscape:current-layer="g8" /><defs
     id="defs6"><linearGradient
       id="linearGradient10"
       inkscape:collect="always"><stop
         style="stop-color:#dc7f7f;stop-opacity:1;"
         offset="0.39204136"
         id="stop10" /><stop
         style="stop-color:#d76063;stop-opacity:1;"
         offset="1"
         id="stop11" /></linearGradient><radialGradient
       id="cd8e5ef9-5c1f-4827-a635-ca58e3c8868c"
       data-name="Degradado sin nombre 4"
       cx="1370.17"
       cy="654.18"
       r="673.64"
       gradientTransform="matrix(1, 0, 0, -1, 0, 1082)"
       gradientUnits="userSpaceOnUse"><stop
         offset="0.16"
         stop-color="#ee757b"
         id="stop1" /><stop
         offset="0.72000003"
         stop-color="#e4242d"
         id="stop2"
         style="stop-color:#e4242d;stop-opacity:1;" /></radialGradient><radialGradient
       id="325cc682-9624-44c0-9f63-01f12a477160"
       data-name="Degradado sin nombre 2"
       cx="1358.5"
       cy="1263.5"
       r="960.26"
       gradientTransform="matrix(1, 0, 0, -1, 0, 1082)"
       gradientUnits="userSpaceOnUse"><stop
         offset="0.62419826"
         stop-color="#9f2024"
         stop-opacity="0"
         id="stop3" /><stop
         offset="0.88696891"
         stop-color="#9f2024"
         stop-opacity="0"
         id="stop8"
         style="stop-color:#7d181b;stop-opacity:0.96470588;" /><stop
         offset="1"
         stop-color="#9f2024"
         id="stop4"
         style="stop-color:#000000;stop-opacity:0.96470588;" /></radialGradient><linearGradient
       id="a0f24843-bd7e-4659-ad42-05c62a389862"
       data-name="Degradado sin nombre 3"
       x1="1368.59"
       y1="999.73"
       x2="1368.59"
       y2="2045.46"
       gradientTransform="matrix(1,0,0,-1,0,1082)"
       gradientUnits="userSpaceOnUse"><stop
         offset="0.14067432"
         stop-color="#e31b2a"
         stop-opacity="0"
         id="stop5" /><stop
         offset="0.99181265"
         stop-color="#fce8e2"
         id="stop6"
         style="stop-color:#f7b68f;stop-opacity:1;" /></linearGradient><filter
       inkscape:collect="always"
       style="color-interpolation-filters:sRGB"
       id="filter8"
       x="-0.050648246"
       y="-0.055538755"
       width="1.1012965"
       height="1.1110775"><feGaussianBlur
         inkscape:collect="always"
         stdDeviation="24.205641"
         id="feGaussianBlur8" /></filter><radialGradient
       inkscape:collect="always"
       xlink:href="#a0f24843-bd7e-4659-ad42-05c62a389862"
       id="radialGradient8"
       cx="1358.7081"
       cy="60.204399"
       fx="1358.7081"
       fy="60.204399"
       r="600.26251"
       gradientTransform="matrix(2.2855547,0,0,1.5709252,-1752.3195,-48.748329)"
       gradientUnits="userSpaceOnUse" /><filter
       inkscape:collect="always"
       style="color-interpolation-filters:sRGB"
       id="filter10"
       x="-0.20422852"
       y="-0.50586618"
       width="1.408457"
       height="2.0117324"><feGaussianBlur
         inkscape:collect="always"
         stdDeviation="97.766804"
         id="feGaussianBlur10" /></filter><radialGradient
       inkscape:collect="always"
       xlink:href="#linearGradient10"
       id="radialGradient11"
       cx="864.98096"
       cy="1553.9365"
       fx="864.98096"
       fy="1553.9365"
       r="809.09571"
       gradientTransform="matrix(1,0,0,0.57664342,0,585.71545)"
       gradientUnits="userSpaceOnUse" /><clipPath
       clipPathUnits="userSpaceOnUse"
       id="clipPath11"><path
         d="M 1741,870.6 A 864.1,864.1 0 0 0 1636.9,458.4 l -1.2,-2.2 -3.6,-6.4 C 1483.4,182 1197.6,0 870.6,0 h -6.8 C 398,3.8 3.2,390.3 0.1,864.9 c 0,1.9 -0.1,3.8 -0.1,5.7 a 865.1,865.1 0 0 0 66.7,333.6 l 1.9,4.6 a 1.7,1.7 0 0 1 0.2,0.5 c 132.6,311.9 442.4,531.7 801.8,531.7 7.5,0 14.9,-0.1 22.3,-0.3 469.2,-12 848.1,-398.2 848.1,-870.1 z"
         style="fill:#000000"
         id="path12" /></clipPath></defs><title
     id="title6">Claro</title><g
     id="g8"><path
       d="M2229-181.4a864.1,864.1,0,0,0-104.1-412.2l-1.2-2.2-3.6-6.4C1971.4-870,1685.6-1052,1358.6-1052h-6.8C886-1048.2,491.2-661.7,488.1-187.1c0,1.9-.1,3.8-.1,5.7a865.1,865.1,0,0,0,66.7,333.6l1.9,4.6a1.7,1.7,0,0,1,.2.5C689.4,469.2,999.2,689,1358.6,689c7.5,0,14.9-.1,22.3-.3C1850.1,676.7,2229,290.5,2229-181.4Z"
       transform="translate(-488 1052)"
       style="fill:#e4242d;fill-opacity:1"
       id="path6" /><path
       d="M2229-181.4a864.1,864.1,0,0,0-104.1-412.2l-1.2-2.2-3.6-6.4C1971.4-870,1685.6-1052,1358.6-1052h-6.8C886-1048.2,491.2-661.7,488.1-187.1c0,1.9-.1,3.8-.1,5.7a865.1,865.1,0,0,0,66.7,333.6l1.9,4.6a1.7,1.7,0,0,1,.2.5C689.4,469.2,999.2,689,1358.6,689c7.5,0,14.9-.1,22.3-.3C1850.1,676.7,2229,290.5,2229-181.4Z"
       style="fill: url(#325cc682-9624-44c0-9f63-01f12a477160)"
       id="path7"
       transform="translate(-488 1052)" /><path
       d="m 795.1,-440.5 c 0,284.9 250.1,516.7 561,522.8 h 25 c 308.4,-6 556.9,-234 561,-515.7 v 0 -14.2 c -4.1,-285.5 -337.366,-516.1 -573.591,-516.1 -236.225,0 -573.409,234.4 -573.409,523.2"
       transform="matrix(0.92697153,0,0,0.71231731,-388.05323,754.52325)"
       style="mix-blend-mode:normal;fill:url(#radialGradient8);filter:url(#filter8)"
       id="path8"
       sodipodi:nodetypes="cccscccc" /><path
       id="874f79dc-0f09-47a7-a44d-a433da37719a"
       data-name="path3094"
       d="M803.4-290.9A111.4,111.4,0,0,1,904-227.5h74.1A181.2,181.2,0,0,0,803.4-360.6c-99.9,0-181,81-181,181s81.1,181,181,181A181.2,181.2,0,0,0,978.1-131.7H904A111.4,111.4,0,0,1,803.4-68.3,111.3,111.3,0,0,1,692.1-179.6,111.3,111.3,0,0,1,803.4-290.9Zm1314.1,68.8H1937v67.8h180.3c-.2-3.7.2-67.8.2-67.8Zm-95.7-275.6L1849.5-324.6l47.5,48.2,172.8-173.4ZM1793-349.8l.3-176.3h-67.9l-.2,176.1c3.7-.2,67.8.2,67.8.2Zm-232.8,60.7a118.1,118.1,0,0,0-26.9,7.3c-15,6-36.5,21.4-50.2,39.7v-35.5l-67.2-1V-.5h70.1l-.2-132.3c0-22.3,2.8-38.7,8.3-49.3,10-18.8,34.3-38.5,63.5-38.5l8.6.2,12.8.9-.7-70.6a143.6,143.6,0,0,0-18.2,1ZM1295.5-114c-.5,24.5-7.4,41.3-20.8,50.6a74.1,74.1,0,0,1-43.3,13.8c-10,0-18.4-2.7-25.4-8.2s-10.3-14.7-10.3-27.2,5.7-24.4,16.9-31c6.7-4,17.7-7.3,33.1-10l16.4-3.1a117.8,117.8,0,0,0,19.3-4.9,78.2,78.2,0,0,0,14.1-7.2Zm37.4-159.3q-35.6-18.1-81.5-18.2c-47.1,0-80.2,12.3-99.6,37q-18.1,23.5-20.5,60.2h70.6c1.7-10.7,5.1-19.3,10.2-25.6,7.2-8.6,19.4-12.8,36.7-12.8,15.4,0,27,2.2,34.9,6.6s12.1,12.2,12.1,23.6c-.1,9.4-5.3,16.4-15.7,20.8-5.8,2.6-15.5,4.7-29,6.4l-24.9,3.1c-28.2,3.6-46.5,9.6-61,17.9-26.6,15.5-39.8,40.3-39.8,74.7,0,26.5,8.2,45.3,24.6,59.8S1182.1-.7,1207.4-.7c58.3,0,91-28.5,91-28.5.4,5.3.1,22.8,0,28.5h69.3l.9-203.8q0-50.5-35.7-68.8ZM1014.5-.7h70.2V-362.5h-70.2Zm717.1-67a77,77,0,0,1-77-77,77.1,77.1,0,0,1,77-77.1,77,77,0,0,1,77,77.1A77,77,0,0,1,1731.6-67.7Zm0-223.4a146.3,146.3,0,0,0-146.4,146.4A146.4,146.4,0,0,0,1731.6,1.7,146.4,146.4,0,0,0,1878-144.7a146.3,146.3,0,0,0-146.4-146.4"
       transform="translate(-488 1052)"
       style="fill: #fff" /><path
       id="path9"
       style="mix-blend-mode:normal;fill:url(#radialGradient11);fill-rule:evenodd;stroke-width:0.703108;filter:url(#filter10)"
       d="m 1444.9554,1266.719 c 0,216.0952 -257.896,348.7042 -574.4554,348.7042 -316.5795,0 -574.45535,-132.6227 -574.45534,-348.7042 0,-216.0953 257.89591,-61.6966 574.45534,-61.6966 316.5795,0 574.4554,-154.385 574.4554,61.6966 z"
       sodipodi:nodetypes="sssss"
       clip-path="url(#clipPath11)" /></g><metadata
     id="metadata11"><rdf:RDF><cc:Work
         rdf:about=""><dc:title>Claro</dc:title></cc:Work></rdf:RDF></metadata></svg>
