<?xml version="1.0" encoding="UTF-8" standalone="no"?>
<svg
   width="1800"
   height="520"
   viewBox="0 0 1800 520"
   role="img"
   aria-label="Master Digital"
   version="1.1"
   id="svg18"
   xmlns="http://www.w3.org/2000/svg"
   xmlns:svg="http://www.w3.org/2000/svg">
  <defs
     id="defs22" />
  <g
     transform="translate(20,25)"
     id="g12">
    <g
       fill="#01bab4"
       id="g10">
      <path
         d="m 60,70 h 240 v 50 H 120 v 220 h 180 v 50 H 60 Z"
         id="path4" />
      <path
         d="m 215,150 165,105 -70,11 20,90 -48,12 -20,-84 -62,44 z"
         id="path6" />
      <path
         id="rect8"
         d="m 340,70 h 50 v 50 h -50 z" />
    </g>
  </g>
  <g
     aria-label="Master"
     id="text14"
     style="font-weight:700;font-size:170px;font-family:Montserrat;fill:#01bab4">
    <path
       d="M 513.89897,340 V 220.99999 h 22.43929 l 43.87385,73.95001 43.20401,-73.95001 h 22.27184 L 646.02288,340 h -25.45353 l -0.16746,-71.4 -34.49623,58.82 H 573.68127 L 539.3525,270.13 V 340 Z"
       id="path25" />
    <path
       d="m 727.23972,340 v -11.39 q -3.01424,5.1 -8.03796,8.16 -7.53559,4.59 -19.42506,4.59 -10.54982,0 -18.08541,-3.57 -7.53558,-3.74 -11.55456,-10.03 -4.01898,-6.29 -4.01898,-14.11 0,-8.16 3.85152,-14.28 4.01898,-6.12 12.55931,-9.52 8.54033,-3.57 22.27184,-3.57 h 20.76472 q 0,-8.5 -5.19118,-13.26 -5.02372,-4.76 -15.57354,-4.76 -7.20067,0 -14.23388,2.38 -6.86576,2.21 -11.72202,6.12 l -9.37762,-18.53 q 7.36813,-5.27 17.75049,-8.16 10.38236,-2.89001 21.09964,-2.89001 20.59726,0 31.98436,9.86001 11.38711,9.86 11.38711,30.77 V 340 Z m -1.67458,-38.25 H 707.6472 q -9.21016,0 -12.72677,3.06 -3.34915,3.06 -3.34915,7.65 0,5.1 3.85152,8.16 4.01898,2.89 10.88474,2.89 6.53084,0 11.72202,-3.06 5.19118,-3.23 7.53558,-9.35 z"
       id="path27" />
    <path
       d="m 805.60989,341.36 q -11.55456,0 -22.27183,-2.72 -10.54982,-2.89 -16.74575,-7.14 l 8.70779,-19.04 q 6.19592,3.91 14.5688,6.46 8.54032,2.38 16.74574,2.38 9.0427,0 12.72676,-2.21 3.85152,-2.21 3.85152,-6.12 0,-3.23 -3.01423,-4.76 -2.84678,-1.7 -7.70304,-2.55 -4.85627,-0.85 -10.71728,-1.7 -5.69355,-0.85 -11.55456,-2.21 -5.86101,-1.53 -10.71728,-4.42 -4.85626,-2.89 -7.87049,-7.82 -2.84678,-4.93 -2.84678,-12.75 0,-8.67 4.85626,-15.3 5.02373,-6.63 14.40134,-10.37 9.37762,-3.91001 22.4393,-3.91001 9.21016,0 18.75523,2.04001 9.54507,2.04 15.90846,5.95 l -8.70779,18.87 q -6.53084,-3.91 -13.22914,-5.27 -6.53084,-1.53 -12.72676,-1.53 -8.70779,0 -12.72677,2.38 -4.01897,2.38 -4.01897,6.12 0,3.4 2.84677,5.1 3.01424,1.7 7.8705,2.72 4.85627,1.02 10.54982,1.87 5.86101,0.68 11.72202,2.21 5.86101,1.53 10.54982,4.42 4.85626,2.72 7.8705,7.65 3.01423,4.76 3.01423,12.58 0,8.5 -5.02372,15.13 -5.02373,6.46 -14.5688,10.2 -9.37761,3.74 -22.94167,3.74 z"
       id="path29" />
    <path
       d="m 901.06065,341.36 q -15.90845,0 -24.78369,-8.16 -8.87525,-8.33 -8.87525,-24.65 v -39.61 h -13.89896 v -20.4 h 13.89896 v -20.23001 h 26.12336 V 248.54 h 22.4393 v 20.4 h -22.4393 v 39.27 q 0,5.78 3.01423,9.01 3.01424,3.06 8.20542,3.06 6.19592,0 10.54982,-3.4 l 7.03321,18.7 q -4.01898,2.89 -9.71253,4.42 -5.5261,1.36 -11.55457,1.36 z"
       id="path31" />
    <path
       d="m 978.92822,341.36 q -15.40608,0 -27.1281,-6.12 -11.55456,-6.12 -17.91794,-16.66 -6.36339,-10.71 -6.36339,-24.31 0,-13.77 6.19593,-24.31 6.36338,-10.71 17.24811,-16.66 10.88474,-6.12001 24.61625,-6.12001 13.22913,0 23.77895,5.78001 10.71727,5.61 16.91317,16.32 6.196,10.54 6.196,25.33 0,1.53 -0.1675,3.57 -0.1675,1.87 -0.3349,3.57 h -68.15519 q 0.83729,3.57 2.67932,6.63 3.18169,5.78 9.0427,8.84 6.02847,2.89 14.06642,2.89 7.20067,0 12.55931,-2.21 5.5261,-2.21 10.04744,-6.63 l 13.899,15.3 q -6.196,7.14 -15.5736,11.05 -9.37758,3.74 -21.60198,3.74 z M 953.4747,286.28 h 44.37621 q -0.66983,-4.25 -2.51186,-7.82 -2.84677,-5.27 -7.8705,-8.16 -5.02372,-3.06 -11.72202,-3.06 -6.69829,0 -11.88947,3.06 -5.02373,2.89 -7.8705,8.16 -1.84204,3.57 -2.51186,7.82 z"
       id="path33" />
    <path
       d="m 1039.8828,340 v -91.46 h 24.9512 v 12.07 q 3.684,-5.27 9.3776,-8.5 8.8752,-4.93001 21.602,-4.93001 V 271.66 q -1.6746,-0.17 -3.0143,-0.17 -1.3396,-0.17 -2.8467,-0.17 -10.7173,0 -17.4156,6.29 -6.5308,6.12 -6.5308,19.21 V 340 Z"
       id="path35" />
  </g>
  <g
     aria-label="Digital"
     id="text16"
     style="font-weight:300;font-size:170px;font-family:Montserrat;fill:#01bab4">
    <path
       d="M 1154.1409,340 V 221 h 54.1784 q 19.4225,0 34.2449,7.48 14.8223,7.31 23.1706,20.57 8.3482,13.26 8.3482,31.45 0,18.02 -8.3482,31.45 -8.3483,13.26 -23.1706,20.74 -14.8224,7.31 -34.2449,7.31 z m 27.6003,-22.61 h 25.2151 q 11.9261,0 20.6151,-4.42 8.8593,-4.59 13.6298,-12.92 4.9408,-8.33 4.9408,-19.55 0,-11.39 -4.9408,-19.55 -4.7705,-8.33 -13.6298,-12.75 -8.689,-4.59 -20.6151,-4.59 h -25.2151 z"
       id="path38" />
    <path
       d="m 1292.9944,340 v -91.46 h 26.5781 V 340 Z m 13.2891,-104.21 q -7.3261,0 -11.9261,-4.25 -4.6001,-4.25 -4.6001,-10.54 0,-6.29 4.6001,-10.54 4.6,-4.25 11.9261,-4.25 7.326,0 11.926,4.08 4.6001,3.91 4.6001,10.2 0,6.63 -4.6001,11.05 -4.4297,4.25 -11.926,4.25 z"
       id="path40" />
    <path
       d="m 1387.3808,374.34 q -12.9483,0 -25.0447,-3.23 -11.9261,-3.06 -19.9336,-9.35 l 10.5631,-19.04 q 5.7926,4.76 14.652,7.48 9.0297,2.89 17.7187,2.89 14.1409,0 20.4447,-6.29 6.4742,-6.29 6.4742,-18.7 v -3.91 q -3.7482,4.08 -8.5187,6.63 -8.8593,4.76 -20.4446,4.76 -12.778,0 -23.1707,-5.44 -10.2223,-5.61 -16.5261,-15.47 -6.1334,-10.03 -6.1334,-23.29 0,-13.43 6.1334,-23.29 6.3038,-10.03 16.5261,-15.47 10.3927,-5.44 23.1707,-5.44 11.5853,0 20.4446,4.59 5.7927,3.06 9.8816,8.33 v -11.56 h 25.2151 v 76.16 q 0,25.5 -13.289,37.57 -13.289,12.07 -38.1634,12.07 z m 1.1926,-60.52 q 6.9853,0 12.4372,-2.72 5.4519,-2.89 8.5186,-7.99 3.0667,-5.1 3.0667,-11.73 0,-6.8 -3.0667,-11.73 -3.0667,-5.1 -8.5186,-7.82 -5.4519,-2.89 -12.4372,-2.89 -6.9853,0 -12.4372,2.89 -5.4519,2.72 -8.689,7.82 -3.0667,4.93 -3.0667,11.73 0,6.63 3.0667,11.73 3.2371,5.1 8.689,7.99 5.4519,2.72 12.4372,2.72 z"
       id="path42" />
    <path
       d="m 1463.5373,340 v -91.46 h 26.5781 V 340 Z m 13.2891,-104.21 q -7.326,0 -11.9261,-4.25 -4.6,-4.25 -4.6,-10.54 0,-6.29 4.6,-10.54 4.6001,-4.25 11.9261,-4.25 7.326,0 11.9261,4.08 4.6,3.91 4.6,10.2 0,6.63 -4.6,11.05 -4.4297,4.25 -11.9261,4.25 z"
       id="path44" />
    <path
       d="m 1552.3015,341.36 q -16.1854,0 -25.2151,-8.16 -9.0298,-8.33 -9.0298,-24.65 v -39.61 h -14.1409 v -20.4 h 14.1409 v -20.23 h 26.5781 v 20.23 h 22.8299 v 20.4 h -22.8299 v 39.27 q 0,5.78 3.0667,9.01 3.0667,3.06 8.3483,3.06 6.3037,0 10.7334,-3.4 l 7.1556,18.7 q -4.0889,2.89 -9.8815,4.42 -5.6223,1.36 -11.7557,1.36 z"
       id="path46" />
    <path
       d="m 1642.0876,340 v -11.39 q -3.0667,5.1 -8.1778,8.16 -7.6668,4.59 -19.7632,4.59 -10.7335,0 -18.4002,-3.57 -7.6668,-3.74 -11.7557,-10.03 -4.089,-6.29 -4.089,-14.11 0,-8.16 3.9186,-14.28 4.0889,-6.12 12.7779,-9.52 8.689,-3.57 22.6595,-3.57 h 21.1262 q 0,-8.5 -5.2815,-13.26 -5.1112,-4.76 -15.8447,-4.76 -7.326,0 -14.4816,2.38 -6.9853,2.21 -11.9261,6.12 l -9.5408,-18.53 q 7.4964,-5.27 18.0595,-8.16 10.563,-2.89 21.4669,-2.89 20.9558,0 32.5411,9.86 11.5853,9.86 11.5853,30.77 V 340 Z m -1.7037,-38.25 h -18.2298 q -9.3705,0 -12.9483,3.06 -3.4075,3.06 -3.4075,7.65 0,5.1 3.9186,8.16 4.0889,2.89 11.0742,2.89 6.6445,0 11.9261,-3.06 5.2815,-3.23 7.6667,-9.35 z"
       id="path48" />
    <path
       d="M 1690.9846,340 V 213.86 h 26.5781 V 340 Z"
       id="path50" />
  </g>
</svg>
